<?xml version="1.0" standalone="no"?><!DOCTYPE svg PUBLIC "-//W3C//DTD SVG 1.1//EN" "http://www.w3.org/Graphics/SVG/1.1/DTD/svg11.dtd"><svg t="1533475347994" class="icon" style="" viewBox="0 0 1024 1024" version="1.1" xmlns="http://www.w3.org/2000/svg" p-id="1053" xmlns:xlink="http://www.w3.org/1999/xlink" width="200" height="200"><defs><style type="text/css"></style></defs><path d="M522.26279494 805.97637037c-119.9542569 6.50285062-225.48517356-65.70896441-271.49169222-164.15717204-50.55942788-108.17778676-41.02191581-214.98549409 31.16246031-310.30574796 68.81496706-90.87526805 164.46813802-126.97660209 277.74759804-113.44774716 56.2318161 6.71686697 105.80529863 29.80335648 149.02409887 66.48455072 23.44867244 19.91463527 22.92551877 28.813752-3.07124729 43.73280879-22.5889425 12.96911543-45.29129614 25.73335959-67.76317012 38.90734627-62.12919631 36.39766717-124.64252668 72.16425543-186.04735528 109.76005569-32.8837507 20.12133515-39.45976754 52.22218306-21.07984346 85.52665184 19.88353716 36.01901908 58.43052922 44.40412909 99.27135177 20.79265721 121.35726121-70.18138914 242.30843907-141.05970701 364.04800569-210.58075149 20.14328629-11.50025769 22.35663234-23.20172939 13.40629683-42.69381609-31.49172013-68.57351181-77.86956865-124.90044709-140.01705692-167.03635228-137.32445589-93.10690606-283.84802077-108.02413424-433.89830814-37.29580982-149.68993134 70.56003539-231.00390748 194.46539021-244.52178512 357.76832012-11.20026727 135.38000406 40.31035241 250.00210633 138.02687419 344.33092702 136.2415627 131.513048 363.93276582 152.20692686 520.42736692 46.4802859 40.74936249-27.52049974 40.74936249-27.52049974 15.48428231-69.55579806-27.31745717-45.43763404-54.42455349-53.88310779-101.84688428-31.14965606C616.25138387 795.04133819 569.73634263 809.014691 522.26279494 805.97637037z" p-id="1054"></path><path d="M934.18311702 613.592623c-2.25724827-32.52156596-19.89268411-58.93905005-35.11172954-86.1760209-4.9681413-8.89545947-12.93984785-5.47300299-20.05365488-1.41398172-27.89365824 15.96902333-55.7013442 32.07523759-83.80719195 47.65646784-11.94658604 6.62357823-14.05932507 14.64467305-7.15221978 26.2876095 16.00743782 26.98088094 31.89780351 54.03310304 47.24489488 81.38531377 6.66930742 11.88256307 14.6684529 14.60077257 26.17785744 7.32416611 16.8068021-10.62223578 34.15688224-20.47437297 50.38199558-31.91426687C926.29555414 646.553199 934.77578148 632.23778401 934.18311702 613.592623z" p-id="1055"></path></svg>