<?xml version="1.0" standalone="no"?><!DOCTYPE svg PUBLIC "-//W3C//DTD SVG 1.1//EN" "http://www.w3.org/Graphics/SVG/1.1/DTD/svg11.dtd"><svg t="1534055205368" class="icon" style="" viewBox="0 0 1024 1024" version="1.1" xmlns="http://www.w3.org/2000/svg" p-id="1405" xmlns:xlink="http://www.w3.org/1999/xlink" width="200" height="200"><defs><style type="text/css"></style></defs><path d="M512 102.4c-225.81333333 0-409.6 183.78666667-409.6 409.6s183.78666667 409.6 409.6 409.6 409.6-183.78666667 409.6-409.6-183.78666667-409.6-409.6-409.6z m0 765.22666667c-196.05333333 0-355.62666667-159.57333333-355.62666667-355.62666667 0-196.05333333 159.57333333-355.62666667 355.62666667-355.62666667S867.62666667 315.94666667 867.62666667 512c0 196.05333333-159.57333333 355.62666667-355.62666667 355.62666667z" p-id="1406"></path><path d="M692.26666667 274.13333333L448.10666667 436.26666667c-4.69333333 3.09333333-8.64 7.14666667-11.84 11.84L274.13333333 692.26666667c-11.09333333 16.64-8.96 38.18666667 5.22666667 52.37333333 8.10666667 8.10666667 18.66666667 12.26666667 29.33333333 12.26666667 7.89333333 0 15.89333333-2.34666667 23.04-7.04l244.16-162.13333334c4.69333333-3.09333333 8.64-7.14666667 11.84-11.84L749.86666667 331.73333333c11.09333333-16.64 8.96-38.18666667-5.22666667-52.37333333-14.18666667-14.18666667-35.73333333-16.32-52.37333333-5.22666667zM544.10666667 544l-190.93333334 126.82666667 126.82666667-190.93333334 190.82666667-126.72L544.10666667 544z" p-id="1407"></path><path d="M487.04 522.34666667c0.64 1.6 1.49333333 3.2 2.45333333 4.69333333 0.96 1.49333333 2.13333333 2.88 3.30666667 4.05333333 1.28 1.28 2.66666667 2.34666667 4.05333333 3.30666667 1.49333333 0.96 2.98666667 1.81333333 4.69333334 2.45333333 1.6 0.64 3.30666667 1.17333333 5.12 1.49333334 1.70666667 0.42666667 3.52 0.53333333 5.33333333 0.53333333 1.70666667 0 3.52-0.21333333 5.22666667-0.53333333 1.70666667-0.32 3.41333333-0.85333333 5.12-1.49333334 1.6-0.74666667 3.2-1.49333333 4.69333333-2.45333333 1.49333333-0.96 2.88-2.13333333 4.05333333-3.30666667 1.28-1.28 2.34666667-2.66666667 3.30666667-4.05333333 0.96-1.49333333 1.81333333-3.09333333 2.45333333-4.69333333 0.74666667-1.6 1.17333333-3.30666667 1.6-5.01333334 0.32-1.70666667 0.53333333-3.52 0.53333334-5.33333333 0-1.81333333-0.21333333-3.52-0.53333334-5.33333333-0.42666667-1.70666667-0.85333333-3.41333333-1.6-5.01333334-0.64-1.6-1.49333333-3.2-2.45333333-4.69333333-0.96-1.49333333-2.13333333-2.88-3.30666667-4.05333333-1.28-1.28-2.56-2.34666667-4.05333333-3.30666667-1.49333333-0.96-2.98666667-1.81333333-4.69333333-2.45333333-1.6-0.64-3.30666667-1.17333333-5.12-1.49333334-3.41333333-0.74666667-7.04-0.74666667-10.56 0-1.70666667 0.32-3.41333333 0.85333333-5.12 1.49333334-1.6 0.74666667-3.2 1.49333333-4.69333334 2.45333333-1.49333333 0.96-2.88 2.13333333-4.05333333 3.30666667-1.28 1.28-2.34666667 2.66666667-3.30666667 4.05333333-0.96 1.49333333-1.81333333 3.09333333-2.45333333 4.69333333-0.74666667 1.6-1.17333333 3.30666667-1.6 5.01333334-0.32 1.81333333-0.53333333 3.52-0.53333333 5.33333333 0 1.81333333 0.21333333 3.52 0.53333333 5.33333333 0.42666667 1.70666667 0.96 3.30666667 1.6 5.01333334z" p-id="1408"></path></svg>