<?xml version="1.0" standalone="no"?><!DOCTYPE svg PUBLIC "-//W3C//DTD SVG 1.1//EN" "http://www.w3.org/Graphics/SVG/1.1/DTD/svg11.dtd"><svg t="1533475340609" class="icon" style="" viewBox="0 0 1024 1024" version="1.1" xmlns="http://www.w3.org/2000/svg" p-id="936" xmlns:xlink="http://www.w3.org/1999/xlink" width="200" height="200"><defs><style type="text/css"></style></defs><path d="M607.1332925 989.27278906H416.87216187c-180.47044406 0-323.00538656 0-323.00538656-93.60332718v-18.72502875c0-175.42510406 144.918525-318.12367875 323.00538656-318.12367876h190.25567626c178.08686156 0 323.01084094 142.69857469 323.01084093 318.12367876v18.72502874c-0.03272625 93.60332719-149.73477844 93.60332719-323.00538656 93.60332719zM416.83943562 614.93038812c-147.13302 0-266.85757125 117.51551063-266.85757124 261.98131875v18.71957438c0 37.46642156 154.2237675 37.46642156 266.85757125 37.46642062h190.26113062c93.23788125 0 266.86302562 0 266.86302563-37.46642062v-18.71957438c0-144.46580719-119.73000656-261.98131875-266.86302563-261.98131875H416.83943562z m85.63441689-74.88920718c-141.40587749 0-256.39053655-113.34833344-256.39053657-252.67607531 0-139.32228844 114.99011344-252.63789469 256.39053655-252.63789469s256.39053655 113.31560625 256.39053657 252.63789468c0 139.32774281-115.01738625 252.67607531-256.39053657 252.67607532zM302.23113125 287.36510562c0 108.34117406 89.82886781 196.52826094 200.24272124 196.52826 110.42476311 0 200.24817657-88.15435969 200.24817657-196.52826S612.89316125 90.86957094 502.47385249 90.86957094c-110.41385437 0-200.24272219 88.159815-200.24272124 196.49553469z" p-id="937"></path></svg>