<?xml version="1.0" standalone="no"?><!DOCTYPE svg PUBLIC "-//W3C//DTD SVG 1.1//EN" "http://www.w3.org/Graphics/SVG/1.1/DTD/svg11.dtd"><svg t="1533475353302" class="icon" style="" viewBox="0 0 1024 1024" version="1.1" xmlns="http://www.w3.org/2000/svg" p-id="1171" xmlns:xlink="http://www.w3.org/1999/xlink" width="200" height="200"><defs><style type="text/css"></style></defs><path d="M736.47626773 261.23922559L291.51326187 261.23922559c-6.64630507 0-12.02534827 5.3790432-12.02534827 12.02644055s5.3790432 12.02644053 12.02534827 12.02644054l444.96300586 0c6.64739733 0 12.02644053-5.3790432 12.02644054-12.02644054S743.12366507 261.23922559 736.47626773 261.23922559z" p-id="1172"></path><path d="M736.47626773 459.97456747L291.51326187 459.97456747c-6.64630507 0-12.02534827 5.3790432-12.02534827 12.02534826s5.3790432 12.02534827 12.02534827 12.02534827l444.96300586 0c6.64739733 0 12.02644053-5.3790432 12.02644054-12.02534827S743.12366507 459.97456747 736.47626773 459.97456747z" p-id="1173"></path><path d="M588.1716384 658.70772587L291.51326187 658.70772587c-6.64630507 0-12.02534827 5.3801344-12.02534827 12.02644053s5.3790432 12.02534827 12.02534827 12.02534827L588.1716384 682.75951467c6.64630507 0 12.02644053-5.3790432 12.02644053-12.02534827S594.81794453 658.70772587 588.1716384 658.70772587z" p-id="1174"></path><path d="M819.3908128 32.41595307L204.6310176 32.41595307c-53.24903466 0-96.56081067 43.3128672-96.56081067 96.5597184l0 766.04756586c0 53.24794241 43.31177601 96.56081067 96.56081067 96.56081067l421.49736747 0c0.38967467 0 0.77825813-0.0229216 1.1657504-0.06003413 0.1397152-0.01309867 0.27506453-0.03711147 0.41368853-0.05566828 0.2455936-0.0316544 0.49009493-0.06549121 0.73459732-0.11242772 0.15499627-0.02947093 0.30562772-0.06876587 0.45844161-0.1058784 0.22157973-0.05348479 0.44315948-0.1058784 0.663648-0.1713696 0.15499627-0.04475307 0.30344427-0.09932907 0.45516694-0.1506304 0.21066454-0.07204052 0.42132907-0.14626453 0.62871893-0.23031254 0.15608853-0.0633088 0.30562772-0.13207467 0.4595328-0.2019328 0.18992533-0.0873216 0.37766827-0.17464427 0.56322772-0.27178986 0.17355306-0.08950507 0.341648-0.18774293 0.50974294-0.28597975 0.14844799-0.0862304 0.29580373-0.17355306 0.43879361-0.26524052 0.2139392-0.138624 0.42132907-0.28597972 0.62544426-0.43551893 0.08186453-0.06221653 0.16591253-0.12115947 0.24777707-0.18555948 0.2783392-0.2150304 0.54357974-0.44206827 0.8011808-0.68220372 0.00327466-0.0010912 0.00545813-0.00327466 0.00764052-0.00545814l0.02183041-0.019648c0.11351893-0.1080608 0.2346784-0.20848107 0.34492267-0.31981761l277.40603093-257.32630719c0.00436587-0.00436587 0.00764053-0.00982399 0.0120064-0.01309866 0.27288213-0.25323413 0.53157332-0.51847468 0.7793504-0.79572267 0.03602027-0.03929493 0.07204052-0.07749867 0.1080608-0.1167936 0.20629867-0.23904427 0.40168213-0.48572907 0.59051627-0.74114667 0.05894293-0.07858986 0.12006827-0.15608853 0.17791893-0.2368608 0.1506304-0.2150304 0.29143787-0.4387936 0.42896959-0.663648 0.07313279-0.12006827 0.1506304-0.24013547 0.21830508-0.36129493 0.10915307-0.19210879 0.20520748-0.39185813 0.30235307-0.59160747 0.07749867-0.1593632 0.1593632-0.31545067 0.22922026-0.47808853 0.0764064-0.17355306 0.14189868-0.351472 0.20848107-0.52939093 0.07313279-0.1932 0.1495392-0.3842176 0.21175573-0.57960107 0.05130133-0.15608853 0.09168854-0.31545067 0.13534934-0.47372267 0.0644-0.2259456 0.12552533-0.45298347 0.17573546-0.68220374 0.02837974-0.13534934 0.05021013-0.27288213 0.074224-0.40932267 0.04693548-0.26087468 0.09059626-0.52174933 0.118976-0.78371625 0.01418987-0.1178848 0.0207392-0.2368608 0.02947094-0.35474667 0.02401387-0.2881632 0.04038614-0.57414293 0.0436608-0.86339734 0-0.04584427 0.00764053-0.08950507 0.00764053-0.13425813L915.92651734 128.97567147C915.92760961 75.72882027 872.61474133 32.41595307 819.3908128 32.41595307zM638.1548256 952.01184107L638.1548256 806.4251136c0-39.97607041 32.53185919-72.5090208 72.5090208-72.5090208l162.60471893 0L638.1548256 952.01184107zM891.87472854 709.8653952L710.6638464 709.8653952c-53.24903466 0-96.56190187 43.31395947-96.56190187 96.56081067l0 161.10714453L204.6310176 967.5333504c-39.97716268 0-72.5090208-32.53185919-72.5090208-72.5090208L132.1219968 128.97567147c0-39.97607041 32.53185919-72.5079296 72.5090208-72.5079296l614.75979412 0c39.97716268 0 72.48391573 32.53185919 72.48391575 72.5079296L891.87472854 709.8653952z" p-id="1175"></path></svg>